<svg viewBox="0 0 400 400" xmlns="http://www.w3.org/2000/svg">
   <path fill="#000" d="M175.646 6.059 C 56.287 19.921,-20.483 144.296,19.088 259.699 C 66.767 398.749,235.543 437.980,335.234 333.185 C 402.340 262.644,407.861 148.789,347.727 75.593 L 345.339 72.687 342.169 74.559 C 338.154 76.931,338.042 76.424,344.402 84.610 C 424.645 187.883,368.806 347.806,241.322 379.833 C 101.398 414.985,-22.924 270.163,28.141 131.500 C 70.172 17.368,213.758 -24.542,309.368 49.414 C 313.695 52.761,317.853 55.945,318.607 56.488 C 319.983 57.479,325.164 55.165,325.680 53.329 C 326.005 52.172,312.191 41.325,302.000 34.735 C 265.895 11.386,219.818 0.929,175.646 6.059 M106.500 126.556 C 102.171 128.784,100.136 131.846,99.394 137.250 C 98.747 141.968,98.716 142.000,94.948 142.000 C 92.313 142.000,90.202 142.801,88.041 144.619 C 81.769 149.897,82.000 147.376,82.000 210.482 C 82.000 273.857,81.888 272.645,88.137 277.101 L 91.500 279.500 135.087 280.000 L 178.675 280.500 182.785 283.350 C 193.963 291.100,206.785 290.607,217.717 282.008 C 220.181 280.070,221.729 280.000,262.167 280.000 C 307.482 280.000,308.023 279.942,313.000 274.549 L 315.500 271.840 315.773 211.915 C 316.075 145.644,316.283 147.972,309.701 143.960 C 307.941 142.886,304.813 142.006,302.750 142.004 C 299.085 142.000,299.000 141.915,298.996 138.250 C 298.985 126.798,287.139 121.177,279.500 129.000 L 275.594 133.000 281.642 133.000 C 291.763 133.000,291.000 128.097,291.000 193.174 C 291.000 260.094,292.809 253.000,275.744 253.000 C 249.317 253.000,225.856 259.477,209.381 271.320 C 202.709 276.116,203.000 276.348,203.000 266.224 L 203.000 257.447 199.000 257.829 L 195.000 258.210 195.000 266.605 C 195.000 276.110,195.078 276.021,190.144 272.116 C 175.191 260.284,149.921 253.000,123.824 253.000 C 104.995 253.000,107.000 260.150,107.000 193.000 C 107.000 126.586,105.527 133.000,120.780 133.000 C 150.948 133.000,176.306 140.116,189.672 152.332 L 195.000 157.201 195.042 178.350 L 195.084 199.500 197.018 196.000 C 201.255 188.331,203.000 180.303,203.000 168.475 L 203.000 157.160 208.465 152.289 C 215.414 146.096,223.258 134.482,219.777 135.541 C 215.849 136.736,206.644 142.711,203.142 146.339 L 199.784 149.818 193.642 144.839 C 186.291 138.880,174.282 132.882,164.000 130.033 C 147.538 125.472,112.700 123.366,106.500 126.556 M99.000 200.099 C 99.000 265.056,96.811 260.013,125.500 261.160 C 144.340 261.913,157.257 264.293,167.142 268.831 L 171.500 270.831 133.079 270.916 C 98.656 270.991,94.467 270.828,92.829 269.345 C 91.098 267.779,91.000 264.640,91.000 210.674 C 91.000 148.404,90.851 150.000,96.655 150.000 L 99.000 150.000 99.000 200.099 M305.927 152.635 C 307.967 155.228,308.000 156.143,308.000 210.201 C 308.000 265.075,307.830 268.078,304.600 270.235 C 303.012 271.295,227.400 271.185,228.550 270.124 C 229.745 269.021,240.465 265.540,249.000 263.483 C 252.726 262.584,262.541 261.666,272.000 261.332 C 301.228 260.297,298.992 265.315,298.996 200.750 L 299.000 150.000 301.427 150.000 C 302.859 150.000,304.705 151.081,305.927 152.635 M120.380 153.452 C 119.300 156.266,121.144 157.000,129.309 157.006 C 144.994 157.017,162.793 160.821,174.195 166.599 C 179.970 169.525,182.000 169.634,182.000 167.017 C 182.000 159.575,123.013 146.590,120.380 153.452 M120.439 169.299 C 119.268 172.350,121.023 173.000,130.428 173.000 C 146.270 173.000,161.038 176.365,174.315 183.000 C 181.542 186.611,182.000 186.650,182.000 183.658 C 182.000 175.918,123.165 162.195,120.439 169.299 M268.072 183.745 C 262.053 184.082,259.149 185.526,259.032 188.239 C 258.987 189.288,277.291 187.939,278.500 186.804 C 279.450 185.912,276.414 182.726,275.059 183.193 C 274.751 183.299,271.607 183.547,268.072 183.745 M120.000 186.000 C 120.000 187.100,120.338 188.010,120.750 188.022 C 121.162 188.034,125.860 188.280,131.190 188.569 C 140.048 189.048,140.969 188.927,141.916 187.157 C 143.303 184.566,141.148 184.031,129.250 184.014 C 120.662 184.001,120.000 184.143,120.000 186.000 M259.000 200.088 C 249.563 201.298,248.424 201.705,246.580 204.518 C 244.952 207.002,244.966 207.047,247.207 206.528 C 251.167 205.609,267.271 204.017,272.691 204.008 C 278.207 203.999,279.937 202.834,277.964 200.456 C 276.615 198.831,269.826 198.699,259.000 200.088 M261.000 215.672 C 244.614 217.322,234.920 220.173,232.653 224.010 C 231.682 225.654,231.025 226.994,231.193 226.987 C 231.362 226.980,234.425 226.055,238.000 224.931 C 246.362 222.302,261.533 220.013,270.643 220.006 C 277.744 220.000,279.309 219.229,278.269 216.250 C 277.847 215.039,269.928 214.774,261.000 215.672 M260.000 231.693 C 238.560 233.981,209.443 245.547,217.420 248.608 C 218.201 248.907,222.138 247.578,226.170 245.653 C 238.302 239.862,255.641 236.000,269.509 236.000 C 276.748 236.000,280.071 234.542,278.527 232.044 C 277.915 231.053,267.795 230.862,260.000 231.693" />
   <path fill="#f00" d="M327.969 62.822 C 286.430 85.461,240.488 123.068,225.135 147.000 C 220.371 154.426,216.696 163.420,212.569 177.759 C 207.351 195.888,199.342 213.000,196.075 213.000 C 195.552 213.000,187.636 207.403,178.484 200.562 C 157.450 184.840,153.098 183.948,147.533 194.218 C 144.653 199.533,145.494 200.710,170.526 226.398 C 194.438 250.936,195.576 251.690,202.666 247.715 C 209.207 244.047,221.000 219.166,230.733 188.500 C 238.358 164.478,243.025 155.781,256.620 140.263 C 279.381 114.284,308.640 87.630,334.749 69.091 C 346.204 60.956,346.381 60.774,345.497 57.991 C 344.457 54.715,341.193 55.615,327.969 62.822" />
</svg>
